<svg xmlns="http://www.w3.org/2000/svg" xmlns:xlink="http://www.w3.org/1999/xlink" width="500" zoomAndPan="magnify" viewBox="0 0 375 374.999991" height="500" preserveAspectRatio="xMidYMid meet" version="1.0"><defs><g/><clipPath id="35c8961c6f"><path d="M 136 93.207031 L 239 93.207031 L 239 147 L 136 147 Z M 136 93.207031 " clip-rule="nonzero"/></clipPath><clipPath id="f5c51c4895"><path d="M 88.9375 166.707031 L 88.9375 234.261719 C 88.9375 253.753906 96.683594 272.449219 110.46875 286.230469 C 124.25 300.015625 142.945312 307.761719 162.4375 307.761719 L 212.5625 307.761719 C 232.054688 307.761719 250.75 300.015625 264.53125 286.230469 C 278.316406 272.449219 286.0625 253.753906 286.0625 234.261719 L 286.0625 166.707031 C 286.0625 147.210938 278.316406 128.519531 264.53125 114.734375 C 250.75 100.949219 232.054688 93.207031 212.5625 93.207031 L 162.4375 93.207031 C 142.945312 93.207031 124.25 100.949219 110.46875 114.734375 C 96.683594 128.519531 88.9375 147.210938 88.9375 166.707031 Z M 88.9375 166.707031 " clip-rule="nonzero"/></clipPath><clipPath id="18e4bce1ac"><path d="M 127 145 L 248 145 L 248 191 L 127 191 Z M 127 145 " clip-rule="nonzero"/></clipPath><clipPath id="8e06b431b3"><path d="M 88.9375 166.707031 L 88.9375 234.261719 C 88.9375 253.753906 96.683594 272.449219 110.46875 286.230469 C 124.25 300.015625 142.945312 307.761719 162.4375 307.761719 L 212.5625 307.761719 C 232.054688 307.761719 250.75 300.015625 264.53125 286.230469 C 278.316406 272.449219 286.0625 253.753906 286.0625 234.261719 L 286.0625 166.707031 C 286.0625 147.210938 278.316406 128.519531 264.53125 114.734375 C 250.75 100.949219 232.054688 93.207031 212.5625 93.207031 L 162.4375 93.207031 C 142.945312 93.207031 124.25 100.949219 110.46875 114.734375 C 96.683594 128.519531 88.9375 147.210938 88.9375 166.707031 Z M 88.9375 166.707031 " clip-rule="nonzero"/></clipPath><clipPath id="3c1be73a01"><path d="M 137 155 L 238 155 L 238 181 L 137 181 Z M 137 155 " clip-rule="nonzero"/></clipPath><clipPath id="f7cc243e23"><path d="M 88.9375 166.707031 L 88.9375 234.261719 C 88.9375 253.753906 96.683594 272.449219 110.46875 286.230469 C 124.25 300.015625 142.945312 307.761719 162.4375 307.761719 L 212.5625 307.761719 C 232.054688 307.761719 250.75 300.015625 264.53125 286.230469 C 278.316406 272.449219 286.0625 253.753906 286.0625 234.261719 L 286.0625 166.707031 C 286.0625 147.210938 278.316406 128.519531 264.53125 114.734375 C 250.75 100.949219 232.054688 93.207031 212.5625 93.207031 L 162.4375 93.207031 C 142.945312 93.207031 124.25 100.949219 110.46875 114.734375 C 96.683594 128.519531 88.9375 147.210938 88.9375 166.707031 Z M 88.9375 166.707031 " clip-rule="nonzero"/></clipPath><clipPath id="d266db5bab"><path d="M 143 191 L 232 191 L 232 271 L 143 271 Z M 143 191 " clip-rule="nonzero"/></clipPath><clipPath id="2a27494a89"><path d="M 88.9375 166.707031 L 88.9375 234.261719 C 88.9375 253.753906 96.683594 272.449219 110.46875 286.230469 C 124.25 300.015625 142.945312 307.761719 162.4375 307.761719 L 212.5625 307.761719 C 232.054688 307.761719 250.75 300.015625 264.53125 286.230469 C 278.316406 272.449219 286.0625 253.753906 286.0625 234.261719 L 286.0625 166.707031 C 286.0625 147.210938 278.316406 128.519531 264.53125 114.734375 C 250.75 100.949219 232.054688 93.207031 212.5625 93.207031 L 162.4375 93.207031 C 142.945312 93.207031 124.25 100.949219 110.46875 114.734375 C 96.683594 128.519531 88.9375 147.210938 88.9375 166.707031 Z M 88.9375 166.707031 " clip-rule="nonzero"/></clipPath><clipPath id="e1adb8327a"><path d="M 169 203 L 206 203 L 206 218 L 169 218 Z M 169 203 " clip-rule="nonzero"/></clipPath><clipPath id="5900080f38"><path d="M 88.9375 166.707031 L 88.9375 234.261719 C 88.9375 253.753906 96.683594 272.449219 110.46875 286.230469 C 124.25 300.015625 142.945312 307.761719 162.4375 307.761719 L 212.5625 307.761719 C 232.054688 307.761719 250.75 300.015625 264.53125 286.230469 C 278.316406 272.449219 286.0625 253.753906 286.0625 234.261719 L 286.0625 166.707031 C 286.0625 147.210938 278.316406 128.519531 264.53125 114.734375 C 250.75 100.949219 232.054688 93.207031 212.5625 93.207031 L 162.4375 93.207031 C 142.945312 93.207031 124.25 100.949219 110.46875 114.734375 C 96.683594 128.519531 88.9375 147.210938 88.9375 166.707031 Z M 88.9375 166.707031 " clip-rule="nonzero"/></clipPath><clipPath id="9a45a350ca"><path d="M 89 255 L 285.5625 255 L 285.5625 307.269531 L 89 307.269531 Z M 89 255 " clip-rule="nonzero"/></clipPath><clipPath id="032a488a1e"><path d="M 88.9375 166.707031 L 88.9375 234.261719 C 88.9375 253.753906 96.683594 272.449219 110.46875 286.230469 C 124.25 300.015625 142.945312 307.761719 162.4375 307.761719 L 212.5625 307.761719 C 232.054688 307.761719 250.75 300.015625 264.53125 286.230469 C 278.316406 272.449219 286.0625 253.753906 286.0625 234.261719 L 286.0625 166.707031 C 286.0625 147.210938 278.316406 128.519531 264.53125 114.734375 C 250.75 100.949219 232.054688 93.207031 212.5625 93.207031 L 162.4375 93.207031 C 142.945312 93.207031 124.25 100.949219 110.46875 114.734375 C 96.683594 128.519531 88.9375 147.210938 88.9375 166.707031 Z M 88.9375 166.707031 " clip-rule="nonzero"/></clipPath><clipPath id="27c785d9b0"><path d="M 66.703125 44.691406 L 308.296875 44.691406 L 308.296875 61.914062 L 66.703125 61.914062 Z M 66.703125 44.691406 " clip-rule="nonzero"/></clipPath></defs><g fill="#007c41" fill-opacity="1"><g transform="translate(28.447989, 338.952331)"><g><path d="M 159.015625 6.453125 C 137.234375 6.453125 117.101562 1.007812 98.625 -9.875 C 80.144531 -20.769531 65.460938 -35.457031 54.578125 -53.9375 C 43.691406 -72.414062 38.25 -92.539062 38.25 -114.3125 L 38.25 -299.109375 L 279.78125 -299.109375 L 279.78125 -114.3125 C 279.78125 -92.539062 274.332031 -72.414062 263.4375 -53.9375 C 252.550781 -35.457031 237.867188 -20.769531 219.390625 -9.875 C 200.910156 1.007812 180.785156 6.453125 159.015625 6.453125 Z M 159.015625 6.453125 "/></g></g></g><g clip-path="url(#35c8961c6f)"><g clip-path="url(#f5c51c4895)"><path fill="#ffdb05" d="M 140.59375 144.570312 C 140.996094 144.441406 141.402344 144.34375 141.808594 144.234375 C 142.234375 144.164062 142.667969 144.128906 143.101562 144.085938 C 143.972656 143.660156 144.988281 143.917969 145.921875 143.832031 L 146.1875 143.257812 C 146.171875 141.652344 146.230469 140.019531 146.679688 138.472656 L 146.777344 137.742188 C 146.882812 137.492188 146.980469 137.242188 147.078125 136.992188 C 147.316406 136.414062 147.503906 135.824219 147.644531 135.214844 C 148.691406 133.25 150.421875 131.816406 151.890625 130.199219 C 153.003906 129.789062 154.089844 129.316406 155.152344 128.789062 C 155.484375 128.574219 155.816406 128.355469 156.15625 128.132812 C 156.820312 127.882812 157.515625 127.726562 158.199219 127.527344 C 158.503906 127.390625 158.816406 127.277344 159.121094 127.125 C 159.78125 126.910156 160.457031 126.78125 161.152344 126.734375 C 161.722656 126.625 162.308594 126.578125 162.882812 126.484375 C 163.449219 126.28125 164.054688 126.339844 164.640625 126.300781 C 164.882812 126.183594 165.140625 126.117188 165.410156 126.097656 C 167.582031 126.03125 169.753906 126.027344 171.929688 126.148438 C 173.164062 126.507812 174.496094 126.269531 175.738281 126.648438 C 176.382812 126.851562 177.070312 126.816406 177.742188 126.898438 C 178.746094 127.0625 179.75 127.171875 180.753906 127.402344 C 181.796875 127.757812 182.929688 127.535156 184.015625 127.652344 C 184.890625 127.902344 185.824219 127.777344 186.726562 127.746094 C 187.289062 127.546875 187.890625 127.597656 188.484375 127.554688 C 188.976562 127.398438 189.480469 127.273438 189.988281 127.183594 C 190.339844 127.117188 190.695312 127.054688 191.046875 126.96875 C 191.460938 126.90625 191.878906 126.851562 192.300781 126.789062 C 192.792969 126.628906 193.296875 126.507812 193.804688 126.421875 C 194.644531 126.3125 195.464844 126.136719 196.273438 125.894531 C 196.527344 125.8125 196.792969 125.722656 197.054688 125.644531 L 197.492188 125.515625 C 197.835938 125.410156 198.183594 125.328125 198.539062 125.265625 C 198.945312 125.132812 199.363281 125.050781 199.792969 125.015625 C 200.292969 124.882812 200.792969 124.820312 201.296875 124.679688 L 203.273438 124.519531 C 204.183594 124.242188 205.109375 124.089844 206.058594 124.066406 C 207.816406 124.09375 209.570312 124.003906 211.328125 124.140625 C 211.660156 124.253906 212 124.332031 212.34375 124.375 C 212.75 124.503906 213.171875 124.601562 213.578125 124.734375 C 214.453125 124.808594 215.292969 125.027344 216.09375 125.386719 C 216.554688 125.742188 217.058594 126.003906 217.617188 126.171875 C 218.113281 126.371094 218.617188 126.539062 219.136719 126.675781 C 220.507812 128.230469 222.28125 129.417969 223.453125 131.152344 C 223.886719 131.820312 224.253906 132.519531 224.675781 133.191406 C 225.199219 134.425781 225.855469 135.617188 226.113281 136.953125 C 226.191406 137.398438 226.296875 137.835938 226.425781 138.269531 L 226.546875 138.75 C 226.796875 139.296875 226.699219 139.921875 226.917969 140.476562 C 226.964844 141.324219 227.015625 142.167969 227.070312 143.011719 C 227.160156 143.300781 227.242188 143.59375 227.324219 143.890625 C 228.324219 143.933594 229.328125 143.917969 230.332031 143.96875 C 231.210938 144.359375 232.222656 143.945312 233.113281 144.320312 C 233.585938 144.5625 234.085938 144.683594 234.617188 144.6875 C 234.867188 144.792969 235.136719 144.894531 235.402344 144.996094 C 235.832031 145.09375 236.261719 145.167969 236.695312 145.222656 C 237.28125 145.464844 237.8125 145.800781 238.28125 146.226562 C 238.316406 143.578125 238.28125 140.929688 238.214844 138.28125 C 237.886719 136.1875 237.878906 134.015625 237.382812 131.945312 C 237.300781 131.617188 237.226562 131.285156 237.132812 130.960938 C 237.03125 130.039062 236.863281 129.132812 236.628906 128.238281 C 236.554688 127.542969 236.375 126.875 236.101562 126.230469 C 235.761719 125.585938 235.667969 124.910156 235.820312 124.199219 C 236.101562 123.648438 236.003906 123.015625 236.203125 122.441406 C 236.273438 122.089844 236.363281 121.746094 236.476562 121.40625 C 236.636719 120.496094 236.769531 119.582031 236.878906 118.664062 C 237.140625 117.882812 237.1875 117.089844 237.019531 116.285156 C 236.550781 115.75 236.117188 115.105469 235.402344 114.878906 C 234.207031 114.429688 233.25 113.550781 232.144531 112.925781 C 231.140625 111.515625 229.335938 111.171875 227.90625 110.363281 C 226.605469 109.292969 225.023438 108.632812 223.707031 107.582031 C 222.90625 106.867188 221.765625 106.882812 220.875 106.328125 L 219.871094 105.828125 C 218.871094 105.101562 217.679688 104.769531 216.613281 104.179688 C 216.289062 103.964844 215.976562 103.753906 215.644531 103.558594 C 215.359375 103.4375 215.078125 103.308594 214.804688 103.152344 C 214.089844 102.878906 213.324219 102.769531 212.613281 102.472656 C 211.871094 102.074219 211.109375 101.726562 210.324219 101.421875 C 208.535156 100.675781 206.703125 100.054688 204.832031 99.566406 L 204.039062 99.148438 C 203.785156 99.066406 203.535156 98.984375 203.300781 98.910156 C 202.402344 98.660156 201.476562 98.519531 200.570312 98.296875 C 200.292969 98.226562 200.023438 98.148438 199.753906 98.0625 C 199.433594 97.976562 199.121094 97.902344 198.816406 97.796875 C 198.40625 97.753906 198.003906 97.671875 197.613281 97.546875 C 196.835938 97.414062 196.058594 97.25 195.296875 97.042969 C 194.628906 96.949219 193.957031 96.921875 193.289062 96.894531 C 192.304688 96.671875 191.28125 96.71875 190.296875 96.613281 C 189.394531 96.347656 188.429688 96.546875 187.539062 96.296875 C 187.175781 96.269531 186.8125 96.246094 186.453125 96.226562 C 186.882812 95.828125 187.257812 95.386719 187.585938 94.902344 C 187.996094 94.273438 188.660156 93.871094 189.070312 93.238281 C 188.402344 93.207031 187.730469 93.21875 187.0625 93.269531 C 186.585938 93.480469 186.0625 93.457031 185.558594 93.5 C 185.09375 93.769531 184.554688 93.695312 184.035156 93.75 C 183.046875 94.039062 182.003906 94.039062 181.023438 94.296875 C 180.683594 94.398438 180.34375 94.503906 180.019531 94.617188 C 179.769531 94.695312 179.542969 94.78125 179.304688 94.867188 L 178.21875 95.421875 C 177.167969 95.632812 176.296875 96.214844 175.429688 96.796875 C 174.84375 97.140625 174.3125 97.582031 173.671875 97.800781 C 172.285156 98.65625 170.898438 99.523438 169.695312 100.628906 C 167.691406 102.109375 165.769531 103.6875 163.925781 105.363281 C 163.363281 106.019531 163.003906 107.007812 162.019531 107.121094 C 162.015625 106.695312 162.089844 106.285156 162.242188 105.890625 C 162.273438 105.640625 162.308594 105.390625 162.34375 105.136719 C 162.53125 104.636719 162.527344 104.113281 162.59375 103.59375 C 162.765625 102.777344 163.050781 101.984375 163.109375 101.148438 C 163.230469 100.742188 163.316406 100.324219 163.394531 99.910156 C 163.671875 98.957031 164.078125 98.066406 164.621094 97.234375 C 164.109375 97.253906 163.613281 97.351562 163.136719 97.535156 C 162.550781 97.710938 161.984375 97.921875 161.425781 98.171875 C 160.859375 98.449219 160.28125 98.691406 159.683594 98.898438 C 158.75 99.25 157.984375 99.902344 157.136719 100.40625 C 155.835938 101.050781 155.035156 102.34375 153.703125 102.953125 C 153.320312 103.136719 152.960938 103.347656 152.613281 103.589844 C 152.277344 104.011719 151.902344 104.40625 151.578125 104.84375 C 150.597656 106.40625 148.726562 107.234375 147.929688 108.941406 C 147.636719 109.675781 147.113281 110.269531 146.636719 110.886719 C 145.648438 112.789062 144.238281 114.515625 143.820312 116.65625 C 143.945312 118.117188 142.660156 118.941406 141.792969 119.890625 C 141.5 120.339844 141.183594 120.769531 140.84375 121.183594 C 139.695312 122.238281 139.570312 123.820312 139.042969 125.195312 C 138.890625 125.539062 138.75 125.882812 138.617188 126.234375 C 138.542969 126.484375 138.46875 126.734375 138.402344 126.984375 C 138.335938 127.234375 138.214844 127.488281 138.128906 127.738281 C 137.910156 128.640625 137.777344 129.5625 137.554688 130.464844 C 137.46875 131.21875 137.4375 131.96875 137.378906 132.722656 C 136.667969 137.097656 136.746094 141.574219 136.773438 146.015625 C 138.023438 145.476562 139.234375 144.8125 140.59375 144.570312 Z M 140.59375 144.570312 " fill-opacity="1" fill-rule="nonzero"/></g></g><g clip-path="url(#18e4bce1ac)"><g clip-path="url(#8e06b431b3)"><path fill="#ffdb05" d="M 127.839844 173.640625 C 127.921875 173.964844 128 174.292969 128.089844 174.617188 C 128.425781 175.980469 128.550781 177.417969 129.273438 178.652344 C 129.5 179.378906 129.816406 180.070312 130.214844 180.722656 C 130.480469 181.144531 130.734375 181.582031 130.96875 182.023438 L 131.363281 182.378906 C 131.398438 182.5 131.464844 182.738281 131.496094 182.859375 C 131.949219 183.59375 132.453125 184.292969 133.003906 184.953125 C 133.730469 185.5625 134.5 186.117188 135.308594 186.609375 C 135.886719 187.4375 136.640625 188.050781 137.566406 188.449219 C 138.496094 188.828125 139.347656 189.378906 140.289062 189.726562 C 140.71875 189.886719 141.148438 190.035156 141.574219 190.203125 C 142.003906 190.246094 142.429688 190.296875 142.851562 190.378906 C 143.738281 190.6875 144.707031 190.453125 145.613281 190.722656 C 146.617188 190.792969 147.617188 190.785156 148.621094 190.789062 C 161.242188 190.789062 173.867188 190.722656 186.496094 190.746094 C 200.542969 190.714844 214.589844 190.871094 228.621094 190.722656 C 229.621094 190.472656 230.644531 190.59375 231.65625 190.472656 C 232.0625 190.328125 232.488281 190.246094 232.910156 190.136719 C 233.433594 190.054688 233.941406 189.925781 234.4375 189.746094 C 234.855469 189.570312 235.273438 189.402344 235.691406 189.242188 C 235.914062 189.109375 236.140625 188.972656 236.367188 188.839844 C 237.492188 188.179688 238.75 187.679688 239.59375 186.632812 C 240.925781 185.695312 242.398438 184.726562 242.972656 183.121094 C 243.402344 182.546875 243.855469 181.988281 244.273438 181.402344 C 244.628906 180.734375 244.941406 180.046875 245.21875 179.339844 C 245.4375 178.839844 245.691406 178.367188 245.90625 177.875 C 246 177.535156 246.078125 177.195312 246.15625 176.871094 C 246.429688 176.039062 246.761719 175.21875 246.882812 174.34375 C 247.085938 173.535156 246.996094 172.683594 247.234375 171.882812 C 247.359375 169.375 247.488281 166.835938 247.179688 164.339844 C 247.117188 163.554688 247.128906 162.757812 246.890625 162 C 246.84375 161.683594 246.800781 161.371094 246.761719 161.054688 C 246.664062 160.804688 246.574219 160.554688 246.488281 160.320312 C 246.261719 159.472656 246.023438 158.632812 245.769531 157.792969 L 245.378906 157.386719 C 245.015625 156.507812 244.597656 155.660156 244.125 154.839844 C 243.621094 154.183594 243.011719 153.585938 242.695312 152.792969 C 241.851562 151.539062 240.589844 150.722656 239.382812 149.867188 C 238.308594 148.785156 236.972656 148.039062 235.644531 147.3125 C 234.960938 146.90625 234.15625 146.902344 233.40625 146.742188 C 233.152344 146.648438 232.902344 146.546875 232.652344 146.445312 C 232.304688 146.410156 231.960938 146.378906 231.621094 146.339844 C 230.410156 145.953125 229.113281 146.195312 227.859375 146.089844 C 227.359375 145.960938 226.855469 145.914062 226.339844 145.945312 C 199.089844 145.960938 171.835938 145.910156 144.585938 145.972656 C 143.621094 146.308594 142.542969 146.117188 141.617188 146.609375 C 141.109375 146.765625 140.597656 146.890625 140.074219 146.988281 C 139.667969 147.199219 139.257812 147.398438 138.839844 147.589844 C 137.757812 148.132812 136.628906 148.65625 135.75 149.503906 C 134.632812 150.652344 133.128906 151.363281 132.214844 152.722656 C 131.238281 154.34375 129.835938 155.753906 129.351562 157.636719 L 128.933594 158.296875 C 128.5 159.351562 128.316406 160.484375 128.054688 161.589844 C 127.402344 164.285156 127.410156 167.078125 127.433594 169.839844 C 127.824219 171.0625 127.484375 172.394531 127.839844 173.640625 Z M 134.359375 165.085938 C 134.394531 164.410156 134.417969 163.734375 134.46875 163.0625 C 134.628906 162.542969 134.785156 162.019531 134.996094 161.519531 C 135.09375 161.289062 135.191406 161.0625 135.28125 160.832031 C 135.449219 160.332031 135.535156 159.777344 135.785156 159.300781 C 137.082031 157.464844 138.492188 155.574219 140.570312 154.578125 C 141.128906 154.238281 141.714844 153.957031 142.324219 153.730469 L 142.859375 153.644531 C 143.160156 153.492188 143.46875 153.351562 143.777344 153.199219 L 144.300781 153.117188 C 144.882812 152.9375 145.496094 152.867188 146.089844 152.734375 C 148.507812 152.539062 150.929688 152.648438 153.351562 152.621094 C 178.101562 152.621094 202.855469 152.601562 227.597656 152.679688 C 228.4375 152.808594 229.277344 152.929688 230.128906 152.984375 C 230.519531 153.113281 230.929688 153.199219 231.324219 153.332031 C 232.136719 153.765625 233.078125 153.890625 233.902344 154.289062 C 235.039062 154.421875 235.4375 155.574219 236.292969 156.152344 C 237.105469 156.90625 237.96875 157.65625 238.640625 158.539062 C 238.910156 159.203125 239.125 159.894531 239.421875 160.546875 L 239.742188 161.011719 C 239.855469 161.363281 239.96875 161.71875 240.074219 162.078125 C 240.203125 162.484375 240.296875 162.90625 240.4375 163.3125 C 240.5625 166.386719 240.664062 169.488281 240.410156 172.5625 C 240.308594 172.910156 240.234375 173.261719 240.175781 173.613281 C 240.070312 173.933594 239.988281 174.257812 239.925781 174.589844 C 239.789062 174.925781 239.671875 175.269531 239.53125 175.609375 C 239.125 176.445312 239.082031 177.457031 238.410156 178.148438 C 237.28125 179.621094 236.0625 181.039062 234.597656 182.1875 C 233.269531 182.09375 232.390625 183.363281 231.085938 183.460938 L 230.585938 183.574219 C 229.265625 183.894531 227.929688 184.023438 226.574219 183.964844 C 212.527344 183.964844 198.480469 183.960938 184.433594 183.945312 C 171.546875 183.917969 158.660156 183.988281 145.773438 183.925781 C 145.019531 183.796875 144.265625 183.644531 143.515625 183.453125 C 143.195312 183.320312 142.867188 183.203125 142.546875 183.089844 C 141.574219 182.761719 140.761719 182.046875 139.71875 181.898438 L 139.257812 181.664062 C 138.667969 180.597656 137.5 180.035156 136.914062 178.96875 C 136.058594 178.105469 135.410156 177.054688 135.304688 175.816406 C 135.132812 175.410156 134.996094 174.988281 134.804688 174.589844 C 134.679688 174.183594 134.574219 173.773438 134.441406 173.371094 C 134.386719 172.769531 134.441406 172.144531 134.210938 171.574219 C 134.292969 169.417969 134.085938 167.226562 134.371094 165.078125 Z M 134.359375 165.085938 " fill-opacity="1" fill-rule="nonzero"/></g></g><g clip-path="url(#3c1be73a01)"><g clip-path="url(#f7cc243e23)"><path fill="#ffdb05" d="M 137.433594 171.699219 C 137.433594 172.730469 137.582031 173.804688 138.152344 174.691406 C 138.652344 175.441406 138.828125 176.371094 139.308594 177.144531 C 139.765625 177.875 140.601562 178.203125 141.332031 178.59375 C 141.628906 178.917969 141.957031 179.207031 142.3125 179.460938 C 142.796875 179.753906 143.304688 180.011719 143.828125 180.230469 L 144.386719 180.300781 C 145.03125 180.496094 145.683594 180.742188 146.367188 180.714844 C 159.910156 180.78125 173.457031 180.683594 187 180.714844 C 200.878906 180.714844 214.765625 180.714844 228.65625 180.714844 C 229.953125 180.582031 231.167969 180.191406 232.304688 179.554688 C 232.957031 179.011719 233.640625 178.527344 234.367188 178.09375 C 234.6875 178.03125 235.078125 177.992188 235.214844 177.625 C 235.828125 176.582031 236.277344 175.445312 236.847656 174.363281 C 236.972656 174.027344 237.097656 173.691406 237.246094 173.363281 C 237.238281 172.898438 237.3125 172.449219 237.464844 172.015625 C 237.464844 170.695312 237.441406 169.375 237.449219 168.054688 C 237.492188 167.46875 237.464844 166.882812 237.371094 166.300781 C 237.605469 165.296875 237.214844 164.292969 237.25 163.289062 C 237.027344 162.609375 236.773438 161.941406 236.484375 161.285156 C 235.59375 160.515625 235.441406 159.21875 234.515625 158.488281 C 233.886719 157.96875 233.074219 157.761719 232.382812 157.339844 C 232.0625 157.144531 231.730469 156.960938 231.394531 156.792969 C 230.496094 156.195312 229.390625 156.234375 228.386719 155.964844 C 222.113281 155.855469 215.84375 155.964844 209.574219 155.9375 C 188.835938 155.988281 168.097656 155.847656 147.367188 155.894531 C 146.851562 155.863281 146.34375 155.910156 145.839844 156.027344 C 145.429688 156.121094 145.015625 156.195312 144.613281 156.3125 C 144.273438 156.4375 143.941406 156.5625 143.609375 156.707031 C 142.808594 157.078125 142.058594 157.542969 141.296875 157.984375 C 140.773438 158.292969 140.269531 158.640625 139.792969 159.019531 C 139.210938 159.933594 138.789062 160.941406 138.113281 161.796875 C 137.742188 162.753906 137.375 163.753906 137.421875 164.804688 C 137.425781 167.117188 137.40625 169.410156 137.433594 171.699219 Z M 137.433594 171.699219 " fill-opacity="1" fill-rule="nonzero"/></g></g><g clip-path="url(#d266db5bab)"><g clip-path="url(#2a27494a89)"><path fill="#ffdb05" d="M 222.585938 220.011719 C 223.628906 218.441406 224.34375 216.699219 225.058594 214.964844 C 225.375 214.515625 225.644531 214.039062 225.871094 213.539062 C 225.949219 213.289062 226.019531 213.011719 226.085938 212.746094 C 226.207031 212.511719 226.335938 212.285156 226.46875 212.0625 C 226.589844 211.765625 226.714844 211.472656 226.839844 211.179688 C 227.214844 210.304688 227.511719 209.402344 227.730469 208.472656 C 227.90625 207.773438 227.917969 206.984375 228.480469 206.464844 C 228.5 206.351562 228.542969 206.125 228.566406 206.007812 C 228.695312 205.589844 228.792969 205.164062 228.863281 204.734375 C 228.976562 204.109375 229.125 203.496094 229.316406 202.894531 C 229.460938 202.496094 229.566406 202.085938 229.722656 201.691406 C 229.9375 200.347656 230.007812 198.964844 230.449219 197.675781 C 230.726562 196.511719 230.777344 195.316406 230.863281 194.128906 C 231.113281 193.363281 231.007812 192.550781 231.03125 191.761719 C 229.960938 191.859375 228.902344 192.046875 227.851562 192.25 C 226.5 192.289062 225.148438 192.25 223.796875 192.285156 C 223.757812 193.921875 223.84375 195.589844 223.546875 197.199219 C 223.511719 197.621094 223.449219 198.039062 223.355469 198.453125 C 223.257812 198.707031 223.160156 198.957031 223.066406 199.191406 C 222.953125 200.226562 222.816406 201.277344 222.414062 202.246094 C 222.265625 202.644531 222.164062 203.058594 222.027344 203.460938 C 222.003906 203.589844 221.957031 203.84375 221.933594 203.960938 C 221.792969 204.464844 221.699219 204.984375 221.570312 205.492188 C 221.476562 205.726562 221.386719 205.960938 221.296875 206.195312 C 221.160156 206.535156 221.023438 206.875 220.90625 207.222656 C 220.589844 208.023438 220.328125 208.839844 220.125 209.675781 C 220.039062 209.800781 219.871094 210.042969 219.789062 210.164062 C 219.695312 210.535156 219.574219 210.898438 219.417969 211.25 C 218.914062 212.046875 218.722656 213.003906 218.113281 213.742188 C 217.355469 214.730469 216.75 215.804688 216.296875 216.964844 C 215.832031 218.015625 214.972656 218.808594 214.289062 219.722656 C 213.394531 220.976562 212.164062 221.953125 211.28125 223.21875 C 210.613281 224.222656 209.539062 224.835938 208.769531 225.753906 C 207.574219 226.632812 206.667969 227.851562 205.398438 228.632812 C 204.472656 229.285156 203.855469 230.34375 202.761719 230.75 C 201.328125 231.351562 200.367188 232.660156 199.082031 233.511719 C 198.25 234.15625 197.128906 234.238281 196.28125 234.859375 C 195.507812 235.335938 194.828125 235.964844 193.988281 236.324219 C 193.1875 236.652344 192.425781 237.050781 191.703125 237.523438 C 191.304688 237.710938 190.894531 237.863281 190.488281 238.027344 C 188.730469 238.667969 186.832031 238.324219 185 238.398438 C 184.394531 238.148438 183.792969 237.898438 183.203125 237.648438 C 182.800781 237.429688 182.394531 237.226562 181.996094 237.011719 C 181.1875 236.566406 180.273438 236.324219 179.488281 235.824219 C 178.960938 235.300781 178.347656 234.90625 177.652344 234.636719 C 176.707031 234.15625 175.730469 233.71875 174.890625 233.054688 C 173.867188 232.207031 172.824219 231.300781 171.574219 230.828125 C 170.917969 230.363281 170.402344 229.75 169.816406 229.222656 C 169.066406 228.695312 168.363281 228.117188 167.667969 227.53125 C 167.210938 227.15625 166.800781 226.738281 166.429688 226.277344 C 165.855469 225.753906 165.175781 225.339844 164.640625 224.773438 C 164.257812 224.488281 163.9375 224.148438 163.683594 223.746094 C 162.320312 222.097656 160.773438 220.609375 159.492188 218.894531 C 158.65625 218.210938 158.425781 217.113281 157.824219 216.261719 C 157.605469 215.835938 157.394531 215.40625 157.203125 214.964844 C 156.640625 214.144531 156.050781 213.34375 155.558594 212.476562 C 155.503906 212.226562 155.449219 211.992188 155.390625 211.753906 C 155.300781 211.636719 155.121094 211.40625 155.03125 211.289062 C 154.824219 210.484375 154.535156 209.707031 154.175781 208.957031 C 153.671875 207.816406 153.472656 206.566406 152.902344 205.445312 C 152.808594 205.136719 152.738281 204.816406 152.648438 204.507812 C 152.535156 204.078125 152.453125 203.640625 152.398438 203.199219 C 152.277344 202.859375 152.148438 202.515625 152.027344 202.195312 C 151.84375 201.613281 151.710938 201.023438 151.527344 200.4375 C 151.488281 200.105469 151.453125 199.769531 151.417969 199.433594 C 151.167969 198.597656 150.96875 197.746094 150.8125 196.886719 C 150.753906 196.058594 150.707031 195.230469 150.691406 194.402344 C 150.332031 193.753906 150.515625 192.988281 150.476562 192.285156 C 149.933594 192.261719 149.390625 192.246094 148.847656 192.214844 C 148.4375 192.101562 148.019531 192.054688 147.59375 192.074219 C 146.089844 192.101562 144.582031 191.929688 143.078125 192.035156 C 143.53125 192.476562 143.421875 193.140625 143.617188 193.695312 C 143.664062 194.519531 143.699219 195.351562 143.800781 196.175781 C 144.050781 196.847656 143.855469 197.597656 144.140625 198.265625 C 144.414062 199.042969 144.453125 199.867188 144.542969 200.679688 C 144.695312 201.359375 144.890625 202.03125 145.128906 202.6875 C 145.328125 203.261719 145.496094 203.847656 145.628906 204.441406 C 145.691406 204.867188 145.777344 205.285156 145.894531 205.695312 C 145.964844 205.945312 146.046875 206.214844 146.144531 206.472656 C 146.246094 206.730469 146.3125 206.976562 146.398438 207.207031 C 146.808594 208.273438 146.9375 209.414062 147.289062 210.496094 C 147.679688 211.300781 148.042969 212.113281 148.402344 212.9375 C 148.6875 213.546875 149 214.140625 149.304688 214.742188 L 149.554688 215.246094 C 150.246094 216.453125 150.511719 217.867188 151.324219 219.007812 C 151.859375 219.839844 152.238281 220.761719 152.867188 221.539062 C 153.496094 222.3125 154.21875 223.042969 154.515625 223.992188 C 154.5625 225.09375 154.503906 226.191406 154.332031 227.285156 C 154.183594 228.039062 154.421875 228.894531 154.042969 229.601562 C 153.984375 230.179688 154.085938 230.796875 153.8125 231.332031 C 153.636719 232.984375 153.871094 234.675781 153.46875 236.296875 C 152.550781 237.320312 151.578125 238.292969 150.558594 239.210938 C 149.453125 240.296875 148.800781 241.71875 148.179688 243.109375 C 148.046875 243.332031 147.910156 243.554688 147.773438 243.785156 C 147.621094 244.304688 147.484375 244.832031 147.324219 245.351562 C 147.238281 246.039062 147.097656 246.71875 146.90625 247.382812 C 146.777344 247.773438 146.691406 248.171875 146.65625 248.578125 C 146.355469 249.632812 146.242188 250.902344 146.863281 251.867188 C 147.867188 253 148.851562 254.222656 150.125 255.0625 C 150.574219 255.28125 150.984375 255.5625 151.347656 255.90625 C 152.488281 256.875 153.898438 257.496094 154.929688 258.601562 C 155.453125 259.121094 156.199219 259.269531 156.867188 259.527344 C 157.792969 259.796875 158.441406 260.5625 159.296875 260.972656 C 160.578125 261.613281 161.882812 262.226562 163.105469 262.980469 C 163.503906 263.207031 163.929688 263.339844 164.390625 263.378906 C 165.078125 263.609375 165.746094 263.890625 166.394531 264.21875 L 166.929688 264.484375 C 167.25 264.625 167.574219 264.777344 167.898438 264.921875 C 168.78125 265.160156 169.636719 265.46875 170.464844 265.851562 C 171.546875 266.480469 172.800781 266.628906 173.976562 266.972656 C 174.40625 267.054688 174.824219 267.171875 175.230469 267.328125 C 176.035156 267.671875 176.855469 267.964844 177.695312 268.207031 C 178.390625 268.316406 179.070312 268.480469 179.738281 268.707031 C 180.0625 268.789062 180.394531 268.871094 180.714844 268.980469 L 181.183594 269.109375 C 182.011719 269.320312 182.847656 269.488281 183.691406 269.609375 C 184.363281 269.847656 185.0625 270.015625 185.742188 270.242188 C 186.570312 270.328125 187.394531 270.34375 188.226562 270.289062 C 188.699219 270.078125 189.230469 270.039062 189.710938 269.890625 C 190.039062 269.8125 190.378906 269.753906 190.714844 269.65625 C 191.464844 269.527344 192.234375 269.363281 192.992188 269.199219 C 193.339844 269.109375 193.6875 269.039062 194.039062 268.984375 C 194.289062 268.890625 194.539062 268.800781 194.789062 268.71875 C 195.179688 268.59375 195.574219 268.511719 195.964844 268.398438 C 196.308594 268.3125 196.65625 268.226562 196.996094 268.125 C 197.589844 267.992188 198.167969 267.828125 198.742188 267.625 C 199.242188 267.433594 199.742188 267.277344 200.246094 267.105469 L 200.765625 267.023438 C 201.433594 266.765625 202.125 266.585938 202.835938 266.488281 C 203.191406 266.335938 203.542969 266.171875 203.886719 265.984375 C 204.90625 265.449219 206.058594 265.25 207.089844 264.730469 C 208 264.320312 208.84375 263.726562 209.847656 263.503906 C 211.351562 263.335938 212.441406 262.15625 213.859375 261.703125 C 214.363281 261.441406 214.863281 261.203125 215.367188 260.953125 C 215.597656 260.761719 215.839844 260.582031 216.082031 260.40625 C 216.507812 260.152344 216.941406 259.902344 217.382812 259.667969 C 217.972656 259.445312 218.589844 259.28125 219.171875 259.03125 C 219.804688 258.648438 220.253906 258.027344 220.859375 257.617188 C 221.535156 257.132812 222.234375 256.671875 222.890625 256.15625 C 224.265625 255.097656 225.699219 254.109375 226.957031 252.914062 C 227.40625 252.296875 227.65625 251.527344 228.28125 251.050781 C 228.269531 250.574219 228.230469 250.097656 228.164062 249.625 C 228.042969 249.140625 227.976562 248.652344 227.972656 248.152344 C 227.835938 247.820312 227.746094 247.476562 227.699219 247.121094 C 227.582031 246.707031 227.5 246.28125 227.417969 245.867188 C 227.324219 245.542969 227.257812 245.210938 227.195312 244.886719 C 226.988281 244.183594 226.742188 243.496094 226.460938 242.820312 C 226.28125 242.570312 226.109375 242.320312 225.941406 242.046875 C 225.851562 241.8125 225.765625 241.578125 225.691406 241.347656 C 225.148438 240.59375 224.707031 239.800781 224.128906 239.089844 C 223.585938 238.3125 222.574219 238.140625 221.832031 237.625 C 221.753906 237.359375 221.6875 237.09375 221.636719 236.828125 C 221.535156 236.414062 221.457031 236 221.328125 235.601562 C 220.824219 234.140625 220.78125 232.589844 220.671875 231.0625 C 220.472656 230.230469 220.53125 229.363281 220.300781 228.554688 C 220.261719 227.972656 220.25 227.390625 220.21875 226.8125 C 219.949219 225.992188 220.003906 225.113281 219.992188 224.265625 C 219.929688 223.863281 220.164062 223.550781 220.386719 223.261719 C 220.992188 222.089844 222.039062 221.21875 222.585938 220.011719 Z M 213.109375 245.402344 C 212.277344 245.796875 211.53125 246.3125 210.863281 246.941406 C 210.355469 247.117188 209.835938 247.238281 209.304688 247.308594 C 208.96875 247.464844 208.636719 247.628906 208.300781 247.796875 L 207.296875 248.324219 C 206.707031 248.601562 206.101562 248.828125 205.492188 249.050781 C 205.242188 249.144531 205.007812 249.234375 204.765625 249.320312 C 204.46875 249.429688 204.171875 249.539062 203.886719 249.660156 C 203.527344 249.84375 203.164062 250.007812 202.800781 250.164062 C 201.957031 250.230469 201.136719 250.414062 200.308594 250.554688 C 199.890625 250.667969 199.460938 250.753906 199.054688 250.871094 C 198.199219 251.390625 197.152344 251.089844 196.242188 251.425781 C 195.726562 251.46875 195.203125 251.476562 194.738281 251.703125 C 194.078125 251.757812 193.378906 251.628906 192.757812 251.921875 C 189.246094 252.0625 185.734375 252.078125 182.222656 251.9375 C 181.878906 251.945312 181.542969 251.886719 181.21875 251.761719 C 180.621094 251.699219 179.964844 251.839844 179.429688 251.523438 C 178.085938 251.511719 176.769531 251.214844 175.46875 250.921875 C 174.171875 250.371094 172.710938 250.539062 171.429688 249.917969 C 171.179688 249.816406 170.929688 249.722656 170.675781 249.636719 C 170.109375 249.425781 169.535156 249.230469 168.964844 249.023438 C 168.398438 248.8125 167.789062 248.554688 167.210938 248.3125 L 166.207031 247.746094 C 165.125 247.300781 163.890625 247.1875 162.96875 246.40625 C 161.660156 245.367188 160.117188 244.652344 158.8125 243.628906 C 158.9375 243.199219 159.027344 242.761719 159.113281 242.328125 C 159.195312 241.894531 159.28125 241.511719 159.363281 241.109375 C 159.5625 240.605469 159.542969 240.082031 159.613281 239.570312 C 159.722656 239.234375 159.785156 238.886719 159.863281 238.550781 C 159.980469 238.140625 160.058594 237.722656 160.097656 237.296875 C 160.421875 236.582031 160.242188 235.773438 160.347656 235.019531 C 160.621094 233.386719 160.464844 231.726562 160.597656 230.085938 C 161.0625 230.632812 161.59375 231.109375 162.191406 231.515625 C 162.707031 232.324219 163.34375 233.019531 164.109375 233.597656 C 164.863281 234.191406 165.902344 234.382812 166.5 235.179688 C 166.925781 235.789062 167.5625 236.183594 168.195312 236.550781 C 170.070312 238.054688 172.269531 239.125 174.1875 240.582031 C 174.746094 241.019531 175.332031 241.417969 175.945312 241.777344 C 176.886719 242.226562 177.929688 242.441406 178.820312 243 C 179.574219 243.46875 180.355469 243.957031 181.246094 244.152344 C 182.820312 244.566406 184.320312 245.421875 185.996094 245.25 C 187.90625 245.164062 189.910156 245.515625 191.730469 244.773438 C 192.480469 244.410156 193.277344 244.167969 194.058594 243.878906 C 194.386719 243.707031 194.71875 243.535156 195.0625 243.375 L 195.546875 243.140625 C 196.550781 242.414062 197.804688 242.285156 198.835938 241.652344 C 199.882812 241.117188 200.675781 240.214844 201.695312 239.644531 C 204.1875 238.117188 206.800781 236.675781 208.804688 234.5 C 210.324219 233.976562 211.390625 232.761719 212.316406 231.507812 C 212.855469 231.117188 213.414062 230.757812 213.96875 230.367188 C 214.316406 231.640625 214.132812 232.992188 214.082031 234.292969 C 214.175781 234.878906 214.230469 235.46875 214.300781 236.050781 C 214.394531 236.371094 214.460938 236.699219 214.550781 237.035156 C 214.734375 237.683594 214.738281 238.367188 214.910156 239.027344 C 215.199219 240.28125 215.417969 241.550781 215.566406 242.832031 C 215.648438 243.148438 215.714844 243.472656 215.777344 243.800781 C 214.839844 244.300781 213.980469 244.84375 213.109375 245.402344 Z M 213.109375 245.402344 " fill-opacity="1" fill-rule="nonzero"/></g></g><g clip-path="url(#e1adb8327a)"><g clip-path="url(#5900080f38)"><path fill="#ffdb05" d="M 171.980469 207.972656 C 172.464844 208.683594 173.027344 209.335938 173.660156 209.921875 C 174.914062 210.882812 175.773438 212.230469 176.921875 213.304688 C 177.476562 213.804688 178.175781 214.042969 178.835938 214.386719 C 179.335938 214.890625 179.773438 215.4375 180.445312 215.691406 C 181.164062 216.125 181.90625 216.507812 182.675781 216.839844 C 183.445312 217.121094 184.226562 217.34375 185.015625 217.578125 C 185.464844 217.585938 185.902344 217.667969 186.324219 217.828125 C 187.464844 217.65625 188.621094 217.699219 189.765625 217.558594 C 190.164062 217.445312 190.566406 217.347656 190.972656 217.273438 C 191.242188 217.183594 191.515625 217.101562 191.789062 217.019531 C 192.085938 216.820312 192.382812 216.621094 192.691406 216.429688 C 193.734375 215.9375 194.707031 215.328125 195.605469 214.601562 C 196.285156 214.101562 197.171875 213.863281 197.699219 213.152344 C 198.304688 212.351562 199.203125 211.8125 199.730469 210.949219 C 200.101562 210.226562 200.910156 209.925781 201.445312 209.351562 C 202.042969 208.691406 202.492188 207.914062 203.023438 207.203125 C 204.148438 206.09375 204.507812 204.457031 205.589844 203.304688 C 204.96875 203.449219 204.367188 203.640625 203.777344 203.878906 C 203.542969 203.972656 203.3125 204.066406 203.078125 204.15625 C 202.554688 204.3125 202.019531 204.449219 201.503906 204.621094 C 200.859375 204.839844 200.207031 205.019531 199.542969 205.167969 C 199.210938 205.273438 198.867188 205.347656 198.539062 205.429688 C 198.125 205.539062 197.707031 205.621094 197.304688 205.757812 C 196.617188 205.882812 195.941406 206.050781 195.273438 206.257812 C 194.191406 206.347656 193.132812 206.5625 192.054688 206.652344 C 191.226562 206.90625 190.34375 206.765625 189.503906 206.921875 C 188 207.21875 186.496094 206.96875 184.988281 206.949219 C 184.308594 206.820312 183.609375 206.863281 182.9375 206.679688 C 181.691406 206.597656 180.453125 206.449219 179.21875 206.238281 C 178.738281 206.105469 178.234375 206.0625 177.753906 205.925781 C 177.335938 205.722656 176.898438 205.585938 176.441406 205.519531 C 175.6875 205.347656 174.917969 205.203125 174.167969 205.015625 C 173.164062 204.6875 172.160156 204.378906 171.15625 204.058594 L 170.691406 203.757812 C 170.191406 203.527344 169.648438 203.335938 169.132812 203.125 L 169.023438 203.175781 L 169.507812 203.925781 C 169.769531 204.46875 170.066406 204.988281 170.394531 205.492188 C 170.863281 206.351562 171.445312 207.144531 171.980469 207.972656 Z M 171.980469 207.972656 " fill-opacity="1" fill-rule="nonzero"/></g></g><g clip-path="url(#9a45a350ca)"><g clip-path="url(#032a488a1e)"><path fill="#ffdb05" d="M 285.75 306.3125 C 285.710938 306.0625 285.671875 305.816406 285.636719 305.574219 C 285.515625 305.234375 285.421875 304.890625 285.363281 304.535156 C 285.066406 303.230469 285.046875 301.875 284.84375 300.550781 C 284.703125 300.027344 284.6875 299.476562 284.480469 298.976562 C 284.453125 298.582031 284.429688 298.195312 284.402344 297.8125 C 284.101562 297.230469 284.226562 296.558594 284.035156 295.945312 C 283.941406 295.628906 283.863281 295.316406 283.765625 295.011719 C 283.660156 294.171875 283.480469 293.347656 283.332031 292.519531 C 283.203125 292.019531 283.144531 291.515625 282.992188 291.015625 C 282.972656 290.882812 282.929688 290.613281 282.90625 290.480469 C 282.773438 290.066406 282.65625 289.652344 282.523438 289.25 C 282.390625 288.75 282.230469 288.246094 282.117188 287.722656 C 281.839844 286.882812 281.683594 286.011719 281.378906 285.183594 C 281.128906 284.429688 280.941406 283.664062 280.625 282.925781 C 280.304688 282.476562 280.128906 281.976562 280.105469 281.421875 C 279.835938 280.628906 279.46875 279.882812 279.003906 279.1875 C 278.167969 277.511719 277.050781 276.046875 275.652344 274.800781 C 275.25 274.351562 274.941406 273.820312 274.472656 273.4375 C 273.40625 272.671875 272.46875 271.75 271.324219 271.085938 C 270.902344 270.835938 270.496094 270.570312 270.070312 270.332031 C 269.476562 270.027344 268.90625 269.675781 268.316406 269.375 C 267.230469 269.039062 266.324219 268.296875 265.234375 267.960938 C 264.730469 267.707031 264.214844 267.457031 263.707031 267.207031 C 262.640625 266.515625 261.355469 266.410156 260.195312 265.984375 C 259.972656 265.839844 259.753906 265.695312 259.535156 265.554688 L 258.765625 265.425781 L 258.296875 265.066406 C 257.75 264.882812 257.21875 264.675781 256.691406 264.464844 L 256 264.078125 C 255.371094 263.710938 254.691406 263.496094 253.96875 263.425781 C 253.550781 263.308594 253.128906 263.203125 252.714844 263.085938 C 252.191406 262.90625 251.683594 262.691406 251.195312 262.441406 C 250.875 262.308594 250.550781 262.191406 250.234375 262.0625 C 249.425781 261.703125 248.558594 261.492188 247.726562 261.214844 C 247.074219 260.664062 246.222656 260.519531 245.402344 260.402344 C 245.152344 260.320312 244.878906 260.25 244.621094 260.1875 C 244.394531 260.054688 244.179688 259.921875 243.960938 259.789062 C 242.910156 259.285156 241.703125 259.3125 240.660156 258.835938 C 239.875 258.65625 239.121094 258.394531 238.402344 258.039062 C 237.679688 257.742188 236.9375 257.496094 236.179688 257.308594 C 235.289062 256.882812 234.359375 256.582031 233.390625 256.402344 C 232.621094 256.179688 231.84375 255.988281 231.085938 255.71875 C 230.175781 256.34375 229.425781 257.167969 228.503906 257.777344 C 227.863281 258.195312 227.539062 258.941406 226.894531 259.351562 C 225.964844 259.800781 225.109375 260.367188 224.328125 261.042969 C 223.65625 261.839844 222.847656 262.46875 221.910156 262.929688 C 220.695312 263.410156 219.597656 264.082031 218.609375 264.933594 C 217.1875 265.4375 216.066406 266.480469 214.753906 267.191406 C 213.828125 267.410156 212.941406 267.746094 212.097656 268.195312 C 211.171875 268.859375 210.09375 269.230469 209.019531 269.601562 C 208.800781 269.726562 208.585938 269.851562 208.371094 269.992188 L 207.84375 270.203125 C 207.570312 270.324219 207.296875 270.453125 207.03125 270.59375 C 206.066406 270.945312 205.089844 271.234375 204.089844 271.464844 C 203.65625 271.601562 203.238281 271.78125 202.835938 271.996094 C 202.484375 272.144531 202.128906 272.285156 201.769531 272.410156 C 200.773438 272.640625 199.800781 272.945312 198.851562 273.320312 C 197.917969 273.648438 196.902344 273.699219 196.003906 274.125 C 195.613281 274.253906 195.210938 274.347656 194.820312 274.472656 C 193.964844 274.574219 193.117188 274.742188 192.285156 274.972656 L 191.464844 275.105469 C 191.445312 276.148438 191.121094 277.148438 191.066406 278.191406 C 190.925781 278.691406 190.859375 279.195312 190.71875 279.695312 C 190.683594 280.371094 190.597656 281.039062 190.46875 281.703125 C 190.378906 282.015625 190.292969 282.335938 190.183594 282.648438 C 189.917969 283.816406 189.753906 285.003906 189.566406 286.1875 C 189.363281 286.867188 189.195312 287.554688 189.066406 288.253906 C 188.9375 288.746094 188.84375 289.238281 188.777344 289.742188 C 188.621094 290.3125 188.585938 290.910156 188.441406 291.496094 C 188.367188 291.832031 188.3125 292.183594 188.21875 292.519531 C 188.121094 292.855469 188.058594 293.171875 187.96875 293.496094 C 187.875 293.820312 187.828125 294.191406 187.714844 294.53125 C 187.644531 295.21875 187.5 295.894531 187.285156 296.554688 C 187.109375 295.777344 186.921875 295.007812 186.722656 294.242188 C 186.65625 293.824219 186.59375 293.410156 186.484375 293.003906 C 186.320312 292.171875 186.160156 291.34375 185.964844 290.523438 C 185.898438 290.183594 185.84375 289.839844 185.789062 289.519531 C 185.652344 288.929688 185.566406 288.332031 185.539062 287.726562 C 185.4375 287.402344 185.367188 287.074219 185.289062 286.757812 C 185.042969 285.933594 184.863281 285.097656 184.75 284.25 C 184.644531 283.753906 184.582031 283.25 184.570312 282.742188 C 184.363281 282.242188 184.34375 281.683594 184.183594 281.171875 C 184.144531 280.75 184.074219 280.332031 183.96875 279.917969 C 183.867188 278.847656 183.691406 277.789062 183.550781 276.726562 C 183.320312 276.238281 183.382812 275.683594 183.273438 275.171875 C 183.019531 275.101562 182.769531 275.035156 182.519531 274.984375 C 181.015625 274.550781 179.40625 274.507812 177.953125 273.867188 C 177.429688 273.769531 176.921875 273.617188 176.414062 273.46875 C 176.015625 273.335938 175.609375 273.246094 175.21875 273.113281 L 174.453125 272.910156 C 174.203125 272.828125 173.972656 272.742188 173.734375 272.660156 C 173.328125 272.445312 172.894531 272.3125 172.4375 272.265625 C 172.019531 272.097656 171.601562 271.929688 171.195312 271.75 C 170.277344 271.269531 169.210938 271.246094 168.253906 270.890625 C 167.726562 270.667969 167.199219 270.453125 166.667969 270.25 C 165.191406 269.246094 163.335938 268.996094 161.945312 267.851562 C 160.882812 267.386719 159.578125 267.433594 158.71875 266.574219 C 157.683594 265.648438 156.300781 265.261719 155.242188 264.378906 C 154.394531 263.863281 153.5625 263.304688 152.613281 262.992188 C 150.832031 261.757812 149.285156 260.195312 147.363281 259.15625 C 146.796875 258.476562 146.230469 257.789062 145.492188 257.292969 C 144.75 256.796875 144.367188 255.835938 143.464844 255.738281 C 142.800781 256.066406 142.101562 256.277344 141.367188 256.359375 C 140.925781 256.519531 140.484375 256.675781 140.039062 256.824219 C 139.722656 256.953125 139.402344 257.074219 139.085938 257.21875 L 138.617188 257.320312 C 138.113281 257.496094 137.582031 257.65625 137.0625 257.824219 L 136.121094 258.21875 C 135.871094 258.28125 135.617188 258.355469 135.351562 258.4375 C 135.007812 258.5625 134.664062 258.703125 134.328125 258.847656 C 133.160156 259.464844 131.75 259.304688 130.59375 259.96875 C 128.820312 260.601562 127.097656 261.367188 125.269531 261.84375 C 124.738281 262.132812 124.175781 262.335938 123.582031 262.449219 C 123.316406 262.59375 123.042969 262.730469 122.777344 262.871094 C 121.742188 263.375 120.542969 263.355469 119.492188 263.832031 C 118.863281 264.175781 118.214844 264.476562 117.550781 264.738281 C 117.207031 264.871094 116.867188 265.003906 116.523438 265.132812 C 116.023438 265.316406 115.519531 265.507812 115.046875 265.726562 C 114.003906 266.492188 112.628906 266.355469 111.535156 266.980469 C 111.285156 267.097656 111.011719 267.230469 110.75 267.359375 C 110.195312 267.679688 109.617188 267.960938 109.019531 268.199219 C 108.660156 268.324219 108.324219 268.503906 108.015625 268.738281 C 107.394531 268.984375 106.792969 269.277344 106.21875 269.625 C 105.613281 270.003906 105.015625 270.464844 104.273438 270.511719 C 103.53125 270.5625 103.066406 271.285156 102.535156 271.746094 C 101.957031 272.363281 101.140625 272.691406 100.59375 273.34375 C 100.09375 273.921875 99.339844 274.230469 98.886719 274.878906 C 98.660156 275.570312 98.035156 275.992188 97.617188 276.558594 C 96.984375 277.453125 96.195312 278.230469 95.640625 279.175781 C 95.457031 279.980469 95.253906 280.792969 94.769531 281.480469 C 94.609375 281.886719 94.449219 282.292969 94.28125 282.703125 C 93.890625 283.503906 93.699219 284.378906 93.40625 285.210938 C 93.34375 285.542969 93.261719 285.871094 93.15625 286.191406 C 93.011719 286.542969 92.867188 286.890625 92.742188 287.253906 C 92.523438 288.160156 92.410156 289.09375 92.152344 289.996094 C 92.082031 290.335938 91.992188 290.667969 91.882812 291 C 91.59375 291.699219 91.578125 292.46875 91.421875 293.207031 C 91.335938 293.707031 91.265625 294.222656 91.140625 294.726562 C 90.9375 295.214844 90.808594 295.722656 90.753906 296.25 C 90.558594 297.3125 90.363281 298.378906 90.265625 299.457031 C 89.957031 300.019531 90.1875 300.710938 89.851562 301.269531 C 89.828125 301.667969 89.808594 302.074219 89.78125 302.480469 C 89.398438 303.613281 89.453125 304.871094 89.246094 306.054688 C 88.996094 306.574219 89.082031 307.160156 89.042969 307.71875 C 127.386719 307.707031 165.730469 307.707031 204.074219 307.71875 C 231.378906 307.703125 258.683594 307.753906 285.988281 307.699219 C 285.964844 307.226562 285.882812 306.765625 285.75 306.3125 Z M 285.75 306.3125 " fill-opacity="1" fill-rule="nonzero"/></g></g><g clip-path="url(#27c785d9b0)"><path fill="#ffdb05" d="M 66.703125 44.691406 L 308.332031 44.691406 L 308.332031 61.914062 L 66.703125 61.914062 Z M 66.703125 44.691406 " fill-opacity="1" fill-rule="nonzero"/></g></svg>